<?xml version="1.0" encoding="utf-8"?>
<!-- Generator: Adobe Illustrator 13.0.2, SVG Export Plug-In . SVG Version: 6.00 Build 14948)  -->
<!DOCTYPE svg PUBLIC "-//W3C//DTD SVG 1.1//EN" "http://www.w3.org/Graphics/SVG/1.1/DTD/svg11.dtd">
<svg version="1.1" id="Layer_1" xmlns="http://www.w3.org/2000/svg" xmlns:xlink="http://www.w3.org/1999/xlink" x="0px" y="0px"
	 width="1920px" height="1080px" viewBox="0 0 1920 1080" enable-background="new 0 0 1920 1080" xml:space="preserve">
<g>
	<defs>
		<rect id="SVGID_1_" width="1920" height="1080"/>
	</defs>
	<clipPath id="SVGID_2_">
		<use xlink:href="#SVGID_1_"  overflow="visible"/>
	</clipPath>
	<path clip-path="url(#SVGID_2_)" fill-rule="evenodd" clip-rule="evenodd" d="M1738.721,205.531v3.455
		c-42.821,63.418-86.688,127.867-118.748,202.38c-7.938,18.395-16.294,38.243-19.61,60.636c-1.282,7.756-3.241,18.485,1.937,23.324
		c10.558-0.501,18.038-8.506,25.252-14.637c20-17.453,37.285-38.063,54.818-57.23c0.966-1.023,3.049-5.36,5.53-2.976
		c3.908,6.814-1.801,12.674-6.038,17.714c-21.432,24.948-44.404,49.816-72.396,68.723c-11.063,7.413-26.75,16.18-40.894,11.671
		c-13.558-4.348-12.662-19.076-14.575-34.404c-4.89,0.079-7.796,5.358-11.108,8.595c-9.321,9.368-21.521,23.255-35.668,26.231
		c-15.061,3.326-26.439-3.066-29.658-14.048c-1.788-5.961,0.246-12.865-2.541-20.269c-6.122-0.09-9.612,5.791-13.653,9.539
		c-9.829,9.368-27.254,26.992-44.311,25.8c-12.232-0.683-18.642-9.368-21.502-20.689c-10.211,9.196-21.355,18.225-38.275,20.267
		c-18.332,2.124-33.287-11.672-35.3-29.386c-1.059-9.617,1.185-20.519,3.03-30.828c6.819-38.744,19.173-70.085,37.223-98.63
		c2.913-4.589,12.645-16.342,8.05-23.235c-2.712-4.086-10.658-2.814-15.592-2.555c-5.085,0.25-11.758,0.592-15.605,3.066
		c-3.377,2.125-6.799,9.278-10.495,15.159c-24.068,37.303-43.726,77.499-72.971,108.748c-16.029,16.955-38.779,33.134-61.449,42.502
		c-23.209,9.54-62.23,18.135-79-3.577c-7.356-9.457-7.754-21.46-4.544-34.836c8.294-34.577,33.219-60.467,55.888-78.941
		c33.397-27.343,71.739-45.057,121.307-57.66c11.726-21.281,22.802-44.103,35.196-65.281c11.524-19.803,26.537-36.836,41.789-52.107
		c0.581-0.559,2.552-1.193,2.055-2.557c-15.573-5.497-32.382-9.809-50.367-14.137c-17.882-4.258-37.392-9.196-56.406-3.577
		c-8.95,2.726-20.315,10.004-21.155,20.271c-0.896,11.98,8.772,16.612,8.096,26.342c-0.52,8.222-6.08,15.169-15.719,14.627
		c-11.397-0.58-17.658-15.75-15.592-29.831c2.021-12.671,10.494-23.063,17.233-29.365c15.612-14.818,38.186-26.23,67.356-21.21
		c38.918,6.562,88.805,13.468,121.347-0.591c10.964-4.678,20.028-12.852,31.672-13.533c-1.586,7.571-7.794,13.102-12.574,18.642
		c-5.05,5.884-10.167,11.675-15.029,17.716c-29.339,35.781-59.507,72.41-76.01,118.92c12.285,1.953,24.785,4.94,33.111-1.021
		c5.612-3.905,10.655-16.236,14.651-22.734c5.156-8.424,10.238-15.941,14.604-22.855c19.702-30.738,39.661-58.561,67.424-82.438
		c13.39-11.424,38.303-30.07,60.477-22.175c24.177,8.457,2.486,49.905-5.641,62.634c-22.712,36.119-51.953,64.756-86.528,87.057
		c-8.572,5.541-20.476,9.892-26.684,17.204c-8.229,9.799-13.559,22.742-18.643,34.405c-10.582,24.447-19.913,50.677-27.606,78.35
		c-3.632,13.036-15.253,53.482,4.026,54.675c9.871,0.602,11.843-8.517,18.125-12.683c7.733-28.036,19.597-56.208,31.682-81.418
		c9.364-19.678,21.228-34.495,43.261-41.479c6.585-2.045,15.38-5.45,23.632-1.022c-10.074,21.552-22.71,42.501-34.235,64.213
		c-8.135,15.42-17.744,32.873-22.615,51.098c-1.548,6.132-3.761,14.057,1.015,19.747c13.222-3.906,20.995-16.079,28.72-26.299
		c7.997-10.652,15.347-22.403,22.126-34.327c13.326-23.847,22.955-51.096,35.158-77.498c17.709-37.893,38.046-74.59,61.435-107.179
		c9.238-12.921,18.984-29.796,33.228-35.928c10.243-4.428,28.124-8.858,38.834-0.964c-11.979,22.935-26.968,44.079-41.325,65.199
		c-14.464,21.19-28.7,42.422-42.801,64.224c-13.946,21.721-25.21,45.818-35.717,70.776c-10.509,24.778-22.467,50.927-25.654,80.474
		c16.067,2.214,27.009-9.879,35.22-20.781c8.567-11.321,15.251-24.867,21.132-37.379c12.426-26.494,23.387-53.915,37.262-79.976
		c20.584-38.742,40.847-74.714,63.906-111.232c7.458-11.833,14.81-26.812,25.653-32.896c7.908-4.476,20.922-7.402,30.679-8.053
		C1731.264,203.193,1736.484,202.854,1738.721,205.531 M1469.937,283.338c17.965-14.615,32.54-28.954,46.852-48.01
		c3.39-4.621,25.761-35.757,6.026-36.982c-8.622-0.433-22.033,15.35-27.212,20.802c-14.831,15.557-29.489,33.224-41.747,50.053
		c-6.543,8.925-15.442,18.688-14.089,30.319C1452.756,300.154,1461.769,290.106,1469.937,283.338 M1269.102,346.641
		c-17.688,2.986-35.252,10.481-50.207,18.736c-28.433,15.5-54.023,39.516-70.544,67.71c-7.896,13.537-18.064,32.875-17.089,51.609
		c0.222,5.19,1.069,10.301,4.068,13.706c4.535,5.201,19.182,7.245,29.17,4.521c14.715-4.088,27.954-18.567,37.786-29.9
		c21.354-24.776,39.698-51.609,55.8-79.371c8.304-14.388,18.071-28.694,21.162-45.989
		C1277.575,345.279,1271.306,346.222,1269.102,346.641"/>
	<path clip-path="url(#SVGID_2_)" fill-rule="evenodd" clip-rule="evenodd" d="M1040.123,237.882
		c-1.874,6.007-6.6,10.539-10.528,15.139c-11.663,13.657-23.023,28.171-31.18,46.02c22.008,0.944,46.296,0.17,68.444,1.022
		c-0.856,3.916-1.653,7.835-2.032,12.173c-23.547,1.272-52.997,1.272-76.562,2.553c-18.301,39.857-38.351,78.782-51.253,125.873
		c-2.522,9.197-11.842,42.241,0,48.122c3.639,1.783,8.325,0.511,12.958-1.532c16.382-7.245,28.605-21.893,40.329-34.918
		c5.763-6.472,12.152-13.034,17.623-19.678c5.422-6.553,11.124-15.68,21.153-15.238c4.088,6.721-1.854,13.194-5.475,18.225
		c-18.048,24.435-41.097,46.408-66.01,65.234c-9.372,7.064-21.903,16.431-33.737,18.736c-11.506,2.214-22.013-1.624-27.646-7.075
		c-11.376-10.899-11.037-27.161-12.552-46.066c-9.46,12.945-13.24,26.99-25.632,38.493c-19.609,18.134-54.848,20.951-71.086-1.624
		c-5.488-7.664-11.364-24.266-7.004-35.258c3.201-8.085,17.806-17.793,25.234-8.685c4.416,5.54,2.084,18.486,3.95,27.854
		c1.841,9.106,4.574,18.905,12.669,20.178c12.572,2.135,21.564-12.955,23.089-23.244c1.993-14.229-1.535-30.751-3.98-45.478
		c-2.65-15.59-4.843-29.808-10.607-40.538c-10.167,8.937-18.457,22.733-28.143,34.486c-18.004,21.281-38.957,43.943-61.487,63.702
		c-12.384,10.821-38.651,31.34-56.332,15.16c-10.167-9.368-10.37-27.332-19.12-39.006c-11.821,5.542-18.749,14.818-28.673,23.335
		c-8.813,7.494-19.255,16.953-32.2,19.678c-19.419,4.088-27.73-10.9-25.665-25.81c1.26-9.368,6.216-19.076,11.099-28.275
		c9.004-17.213,18.335-32.1,29.669-49.053c7.795-11.752,22.002-27.082,5.476-36.45c-3.464-2.043-10.189-4.939-14.046-3.486
		c-4.595,1.613-5.451,8.084-7.03,10.56c-9.97,14.899-26.229,27.673-36.79,43.001c-5.422,7.928-7.117,21.042-12.552,31.852
		c-8.474,17.123-24.299,35.087-39.287,46.59c-9.651,7.404-21.017,14.387-39.244,13.116c-15.15-1.023-28.661-10.14-33.745-23.336
		c-6.593-16.862-1.694-38.833,3.05-56.115c9.492-34.589,26.288-60.139,53.889-77.35c12.882-8.076,31.376-15.571,49.797-15.662
		c15.888-0.078,25.454,7.836,27.148,25.811c0.816,8.516,1.859,21.2-7.52,22.734c-3.907-4.85-2.458-10.81-4.01-15.16
		c-7.673-21.712-33.212-4.598-44.293,5.111c-19.427,16.691-30.273,38.663-39.765,64.212c-5.994,16.011-22.026,61.75,11.524,57.662
		c14.916-1.875,24.177-12.434,34.237-24.788c5.276-6.474,9.259-11.754,12.055-17.283c1.992-3.839,8.929-16.521,6.588-21.722
		c-1.95-4.26-10.56-2.805-14.044-6.553c-8.092-8.517,0.337-25.638,5.507-32.362c4.809-6.302,14.874-16.271,23.106-13.216
		c5.208,1.975,4.073,10.15,8.089,14.238c8.38-4.52,15.591-8.606,20.656-14.648c3.737-4.53,7.014-11.843,6.025-18.735
		c-1.745-11.413-10.195-19.85-5.517-34.917c4.068-13.286,19.194-26.74,37.721-26.311c8.276,0.251,17.032,3.498,17.583,10.129
		c0.824,9.107-15.254,21.371-21.166,27.844c-2.106,2.383-6.342,6.222-5.993,10.049c0.57,6.642,12.383,6.642,21.683,8.175
		c11.619,1.792,24.254,3.247,28.651,11.572c4.79,9.037,1.028,22.322-2.511,30.84c-3.738,9.026-9.632,16.691-13.568,23.334
		c-4.736,7.836-9.184,15.841-13.081,23.767c-3.887,7.834-9.492,16.691-7.574,27.251c9.619,1.261,15.443-5.201,21.058-10.56
		c5.37-5.201,12.287-11.503,15.159-17.713c3.546-7.415,3.05-15.761,5.083-23.256c5.519-20.348,17.851-37.551,31.185-52.632
		c8.305-9.366,18.186-18.393,29.69-26.308c14.178-9.799,51.321-26.571,63.365-3.577c2.383,4.428,3.278,10.64,2.562,18.224
		c-2.184,21.882-16.948,38.665-31.713,51.608c-15.941,14.048-33.852,24.098-53.367,29.376c-3.535,12.775-2.911,34.577,4.557,42.412
		c19.883-6.472,33.855-22.311,47.315-36.359c34.034-35.599,64.203-75.113,93.564-115.822c5.581-7.665,11.472-17.714,21.642-20.269
		c-1.176,7.325-5.117,14.015-8.085,21.803c-2.413,6.641-6.27,15.578-5.972,23.244c0.158,6.052,3.389,15.159,4.447,22.233
		c2.531,15.158,5.034,29.976,8.633,44.535c1.665,6.732,2.532,14.397,8.095,18.223c4.585-3.995,5.323-10.389,7.52-15.67
		c14.921-37.551,32.169-76.987,46.783-115.39c-11.046-0.09-20.018-0.682-30.197-0.942v-14.727
		c16.124-0.078,25.106,0.34,41.205,0.511c16.439-29.774,36.438-65.178,78.593-64.735
		C1033.98,236.351,1037.37,236.249,1040.123,237.882 M757.269,412.388c9.831-8.768,24.244-21.881,26.714-35.939
		c0.857-4.77-0.18-10.901-3.528-13.115c-8.336-5.87-22.372,4.94-27.625,9.538c-12.52,10.821-20.19,23.505-27.266,37.982
		c-3.559,7.587-8.327,15.33-7.498,24.278C733.53,430.942,745.162,423.208,757.269,412.388"/>
	<path clip-path="url(#SVGID_2_)" fill-rule="evenodd" clip-rule="evenodd" d="M1522.814,277.819
		c11.524-1.362,19.057,6.666,20.073,16.202c2.295,21.281-16.948,40.016-31.692,44.024c-15.732,4.168-25.45-7.061-24.12-23.255
		C1488.577,296.238,1505.602,279.964,1522.814,277.819"/>
	<path clip-path="url(#SVGID_2_)" fill-rule="evenodd" clip-rule="evenodd" d="M388.848,141.774h30.784
		c41.904,2.069,89.634,12.876,135.351,20.771c24.109,4.028,47.558,6.812,71.479,4.462c22.836-2.137,44.508-7.678,67.452-11.165
		c-21.629,18.659-50.231,28.695-85.608,33.385c-11.258,1.533-23.918,1.193-34.723,4.598c-16.491,5.203-34.637,25.549-44.256,38.415
		c-5.962,8.029-11.334,16.283-16.639,24.846c-5.054,8.346-11.325,17.088-13.063,27.818c21.006,1.963,42.858,1.112,62.434-2.556
		c19.63-3.576,36.578-10.831,52.328-17.203c-6.621,9.029-17.162,14.479-27.171,19.759c-30.432,16.181-69.105,24.846-111.252,29.376
		c-37.18,71.706-69.826,145.119-138.423,183.531c-18.026,10.13-36.608,17.284-63.429,17.284c-25.618,0-44.53-8.504-59.954-20.27
		c-14.294-11.149-28.98-27.762-24.066-52.119c1.974-9.709,7.796-19.498,15.084-25.288c10.606-8.517,41.014-16.953,42.326,5.62
		c0.552,10.981-8.33,18.646-13.629,26.741c-4.701,7.234-12.934,18.736-10.564,28.866c2.543,10.991,15.212,20.87,26.102,24.278
		c12.836,3.917,28.751,3.235,41.353-0.511c25.209-7.587,40.634-29.468,52.834-47.522c20.785-30.58,35.745-63.793,54.277-96.154
		c6.102-10.301,14.119-21.371,14.177-34.905c-28.337-1.967-45.91,18.302-57.839,34.393c5.826-36.36,34.299-52.292,66.372-62.158
		c4.459-1.362,10.508-1.531,14.582-3.575c3.212-1.656,7.578-9.201,10.65-13.103c17.689-22.759,36.924-40.608,56.818-60.24
		c7.711-7.608,16.524-14.638,21.608-24.812c-27.582-2.987-54.043-6.302-81.006-9.616c-26.44-3.248-52.819-9.971-78.454-12.105
		c-46.099-3.747-81.687,6.903-97.745,38.925c-4.807,9.88-8.857,25.097-2.433,36.881c7.785,14.58,35.59,18.088,41.242,32.997
		c6.398,16.862-8.813,37.72-27.685,30.307c-9.16-3.656-15.931-13.366-21.124-22.222c-5.931-10.115-9.394-21.152-10.552-32.874
		c-2.711-26.751,9.384-48.542,21.589-63.315C294.513,161.293,334.77,144.204,388.848,141.774"/>
	<path clip-path="url(#SVGID_2_)" d="M200.212,601.881h20.218c5.593,0,9.938,1.534,12.836,4.508
		c2.515,2.397,3.773,5.883,3.773,10.051v0.17c0,7.153-3.845,11.673-9.393,13.716l10.705,15.844h-11.356l-9.446-14.141h-7.628v14.141
		h-9.709V601.881z M219.751,623.422c4.748,0,7.46-2.555,7.46-6.303v-0.169c0-4.12-2.882-6.303-7.629-6.303h-9.661v12.774H219.751z"
		/>
	<polygon clip-path="url(#SVGID_2_)" points="265.004,601.881 298.347,601.881 298.347,610.49 274.663,610.49 274.663,619.505 
		295.468,619.505 295.468,628.19 274.663,628.19 274.663,637.479 298.658,637.479 298.658,646.168 265.004,646.168 	"/>
	<path clip-path="url(#SVGID_2_)" d="M341.607,601.541h8.983l18.888,44.627h-10.117l-4.069-9.972h-18.643l-4.023,9.972h-9.889
		L341.607,601.541z M351.841,627.601l-5.868-14.308l-5.891,14.308H351.841z"/>
	<polygon clip-path="url(#SVGID_2_)" points="395.503,601.881 405.228,601.881 405.228,637.309 427.249,637.309 427.249,646.168 
		395.503,646.168 	"/>
	<polygon clip-path="url(#SVGID_2_)" points="491.937,601.881 525.208,601.881 525.208,610.49 501.532,610.49 501.532,619.505 
		522.327,619.505 522.327,628.19 501.532,628.19 501.532,637.479 525.496,637.479 525.496,646.168 491.937,646.168 	"/>
	<path clip-path="url(#SVGID_2_)" d="M550.342,639.693l5.755-6.902c3.97,3.325,8.133,5.369,13.176,5.369
		c3.971,0,6.315-1.532,6.315-4.179v-0.079c0-2.476-1.517-3.747-8.837-5.62c-8.887-2.306-14.628-4.77-14.628-13.547v-0.17
		c0-8.005,6.45-13.365,15.454-13.365c6.43,0,11.91,2.043,16.323,5.62l-4.989,7.404c-3.898-2.725-7.766-4.429-11.503-4.429
		c-3.653,0-5.604,1.794-5.604,3.919v0.089c0,2.896,1.855,3.919,9.501,5.871c8.963,2.304,13.93,5.542,13.93,13.286v0.09
		c0,8.856-6.621,13.706-16.154,13.706C562.397,646.757,555.663,644.463,550.342,639.693"/>
	<polygon clip-path="url(#SVGID_2_)" points="622.31,610.818 608.806,610.818 608.806,601.881 645.39,601.881 645.39,610.818 
		632,610.818 632,646.168 622.31,646.168 	"/>
	<path clip-path="url(#SVGID_2_)" d="M681.501,601.541h8.97l18.943,44.627h-10.171l-4.036-9.972h-18.645l-4.056,9.972h-9.861
		L681.501,601.541z M691.69,627.601l-5.826-14.308l-5.806,14.308H691.69z"/>
	<polygon clip-path="url(#SVGID_2_)" points="739.987,610.818 726.582,610.818 726.582,601.881 763.148,601.881 763.148,610.818 
		749.747,610.818 749.747,646.168 739.987,646.168 	"/>
	<polygon clip-path="url(#SVGID_2_)" points="789.798,601.881 823.132,601.881 823.132,610.49 799.459,610.49 799.459,619.505 
		820.271,619.505 820.271,628.19 799.459,628.19 799.459,637.479 823.46,637.479 823.46,646.168 789.798,646.168 	"/>
	<rect x="889.908" y="601.802" clip-path="url(#SVGID_2_)" width="9.66" height="44.366"/>
	<polygon clip-path="url(#SVGID_2_)" points="929.895,601.881 938.785,601.881 959.434,629.134 959.434,601.881 969.065,601.881 
		969.065,646.168 960.792,646.168 939.436,617.971 939.436,646.168 929.895,646.168 	"/>
	<path clip-path="url(#SVGID_2_)" d="M996.909,624.104v-0.08c0-12.604,9.461-22.914,23.033-22.914
		c8.295,0,13.243,2.725,17.344,6.813l-6.177,7.153c-3.39-3.065-6.831-5.02-11.226-5.02c-7.437,0-12.825,6.211-12.825,13.877v0.09
		c0,7.575,5.229,13.876,12.825,13.876c4.985,0,8.037-2.044,11.566-5.187l6.142,6.3c-4.469,4.848-9.554,7.914-18.026,7.914
		C1006.551,646.927,996.909,636.878,996.909,624.104"/>
	<rect x="1063.26" y="636.027" clip-path="url(#SVGID_2_)" width="10.2" height="10.141"/>
	<path clip-path="url(#SVGID_2_)" d="M1140.013,601.881h20.44c5.064,0,9.043,1.363,11.525,3.917
		c2.045,1.968,3.052,4.429,3.052,7.495v0.17c0,4.938-2.595,7.744-5.784,9.54c5.083,1.953,8.275,4.938,8.275,10.899v0.08
		c0,8.177-6.579,12.186-16.57,12.186h-20.938V601.881z M1165.379,614.997c0-2.986-2.232-4.601-6.323-4.601h-9.607v9.369h8.95
		c4.248,0,6.98-1.364,6.98-4.688V614.997z M1160.634,627.85h-11.186v9.803h11.503c4.259,0,6.919-1.535,6.919-4.861v-0.079
		C1167.87,629.725,1165.657,627.85,1160.634,627.85"/>
	<path clip-path="url(#SVGID_2_)" d="M1204.699,601.881h20.165c5.649,0,9.982,1.534,12.872,4.508
		c2.492,2.397,3.741,5.883,3.741,10.051v0.17c0,7.153-3.762,11.673-9.384,13.716l10.739,15.844h-11.356l-9.372-14.141h-7.659v14.141
		h-9.746V601.881z M1224.316,623.422c4.619,0,7.331-2.555,7.331-6.303v-0.169c0-4.12-2.882-6.303-7.511-6.303h-9.691v12.774
		H1224.316z"/>
	<path clip-path="url(#SVGID_2_)" d="M1267.576,624.104v-0.08c0-12.604,9.937-22.914,23.517-22.914
		c13.62,0,23.389,10.14,23.389,22.824v0.09c0,12.604-9.96,22.903-23.516,22.903C1277.377,646.927,1267.576,636.707,1267.576,624.104
		 M1304.332,624.104v-0.08c0-7.584-5.57-13.967-13.366-13.967c-7.829,0-13.232,6.211-13.232,13.877v0.09
		c0,7.575,5.563,13.876,13.359,13.876C1298.908,637.899,1304.332,631.768,1304.332,624.104"/>
	<polygon clip-path="url(#SVGID_2_)" points="1342.316,601.881 1352.083,601.881 1352.083,621.207 1369.942,601.881 
		1381.656,601.881 1363.748,620.697 1382.484,646.168 1370.81,646.168 1357.169,627.26 1352.083,632.62 1352.083,646.168 
		1342.316,646.168 	"/>
	<polygon clip-path="url(#SVGID_2_)" points="1407.567,601.881 1440.894,601.881 1440.894,610.49 1417.244,610.49 1417.244,619.505 
		1438.041,619.505 1438.041,628.19 1417.244,628.19 1417.244,637.479 1441.125,637.479 1441.125,646.168 1407.567,646.168 	"/>
	<path clip-path="url(#SVGID_2_)" d="M1469.047,601.881h20.201c5.558,0,9.916,1.534,12.858,4.508
		c2.401,2.397,3.727,5.883,3.727,10.051v0.17c0,7.153-3.79,11.673-9.458,13.716l10.836,15.844h-11.367l-9.469-14.141h-7.626v14.141
		h-9.702V601.881z M1488.577,623.422c4.748,0,7.457-2.555,7.457-6.303v-0.169c0-4.12-2.9-6.303-7.604-6.303h-9.682v12.774H1488.577z
		"/>
	<path clip-path="url(#SVGID_2_)" d="M1548.988,601.541h8.954l18.841,44.627h-10.118l-4-9.972h-18.667l-4.021,9.972h-9.897
		L1548.988,601.541z M1559.158,627.601l-5.841-14.308l-5.854,14.308H1559.158z"/>
	<path clip-path="url(#SVGID_2_)" d="M1598.063,624.104v-0.08c0-12.604,9.82-22.914,23.124-22.914
		c7.964,0,12.806,2.134,17.428,6.052l-6.149,7.404c-3.389-2.896-6.439-4.509-11.618-4.509c-7.003,0-12.617,6.303-12.617,13.877v0.09
		c0,8.085,5.593,14.046,13.328,14.046c3.526,0,6.672-0.851,9.213-2.634v-6.394h-9.809v-8.346h19.129v19.17
		c-4.576,3.917-10.77,7.061-18.764,7.061C1607.554,646.927,1598.063,637.219,1598.063,624.104"/>
	<polygon clip-path="url(#SVGID_2_)" points="1668.693,601.881 1701.979,601.881 1701.979,610.49 1678.3,610.49 1678.3,619.505 
		1699.085,619.505 1699.085,628.19 1678.3,628.19 1678.3,637.479 1702.314,637.479 1702.314,646.168 1668.693,646.168 	"/>
	<path clip-path="url(#SVGID_2_)" fill="#BF1E2D" d="M249.354,698.578c23.675,0,36.588,2.163,49.77,11.896
		c11.837,8.652,20.177,26.767,20.177,44.881c0,18.116-8.34,36.23-20.177,44.882c-13.182,9.733-26.633,11.896-49.77,11.896h-38.201
		v86.518h-8.071V698.578H249.354z M211.154,804.834h38.471c22.329,0,33.896-2.704,45.196-11.085
		c9.685-7.03,16.41-22.981,16.41-38.122c0-15.682-6.725-31.634-16.41-38.663c-11.3-8.381-22.598-11.085-45.196-11.085h-38.471
		V804.834z"/>
	<path clip-path="url(#SVGID_2_)" fill="none" stroke="#BF1E2D" stroke-width="4.183" stroke-miterlimit="10" d="M249.354,698.578
		c23.675,0,36.588,2.163,49.77,11.896c11.837,8.652,20.177,26.767,20.177,44.881c0,18.116-8.34,36.23-20.177,44.882
		c-13.182,9.733-26.633,11.896-49.77,11.896h-38.201v86.518h-8.071V698.578H249.354z M211.154,804.834h38.471
		c22.329,0,33.896-2.704,45.196-11.085c9.685-7.03,16.41-22.981,16.41-38.122c0-15.682-6.725-31.634-16.41-38.663
		c-11.3-8.381-22.598-11.085-45.196-11.085h-38.471V804.834z"/>
	<path clip-path="url(#SVGID_2_)" fill="#BF1E2D" d="M355.618,898.651h-8.609l85.281-200.072h10.492l85.281,200.072h-8.609
		l-29.861-69.755H385.479L355.618,898.651z M437.401,706.149l-48.425,115.447h97.118L437.401,706.149z"/>
	<path clip-path="url(#SVGID_2_)" fill="none" stroke="#BF1E2D" stroke-width="4.183" stroke-miterlimit="10" d="M355.618,898.651
		h-8.609l85.281-200.072h10.492l85.281,200.072h-8.609l-29.861-69.755H385.479L355.618,898.651z M437.401,706.149l-48.425,115.447
		h97.118L437.401,706.149z"/>
	<path clip-path="url(#SVGID_2_)" fill="#BF1E2D" d="M592.088,698.579h45.465c30.938,0,43.313,2.703,52.998,8.381
		c16.141,8.112,28.786,30.011,28.786,53.263c0.538,12.438-3.228,28.118-12.645,40.556c-14.527,19.195-31.206,21.63-53.804,22.44
		l53.535,75.434H696.2l-58.378-82.733h5.65c14.527,0,38.202,0,50.845-12.707c12.644-13.249,16.949-27.037,16.949-42.719
		c0-17.304-8.34-36.499-23.674-46.503c-12.106-7.842-26.634-8.111-50.039-8.111h-37.394v192.773h-8.071V698.579z"/>
	<path clip-path="url(#SVGID_2_)" fill="none" stroke="#BF1E2D" stroke-width="4.183" stroke-miterlimit="10" d="M592.088,698.579
		h45.465c30.938,0,43.313,2.703,52.998,8.381c16.141,8.112,28.786,30.011,28.786,53.263c0.538,12.438-3.228,28.118-12.645,40.556
		c-14.527,19.195-31.206,21.63-53.804,22.44l53.535,75.434H696.2l-58.378-82.733h5.65c14.527,0,38.202,0,50.845-12.707
		c12.644-13.249,16.949-27.037,16.949-42.719c0-17.304-8.34-36.499-23.674-46.503c-12.106-7.842-26.634-8.111-50.039-8.111h-37.394
		v192.773h-8.071V698.579z"/>
	<polygon clip-path="url(#SVGID_2_)" fill="#BF1E2D" points="791.698,698.579 799.77,698.579 799.77,798.885 892.582,698.579 
		902.268,698.579 810.261,798.615 911.414,898.652 900.653,898.652 799.77,799.427 799.77,898.652 791.698,898.652 	"/>
	<polygon clip-path="url(#SVGID_2_)" fill="none" stroke="#BF1E2D" stroke-width="4.183" stroke-miterlimit="10" points="
		791.698,698.579 799.77,698.579 799.77,798.885 892.582,698.579 902.268,698.579 810.261,798.615 911.414,898.652 900.653,898.652 
		799.77,799.427 799.77,898.652 791.698,898.652 	"/>
	<polygon clip-path="url(#SVGID_2_)" fill="#BF1E2D" points="957.415,698.579 966.561,698.579 1045.117,885.133 1123.941,698.579 
		1132.819,698.579 1047.807,898.652 1042.157,898.652 	"/>
	<polygon clip-path="url(#SVGID_2_)" fill="none" stroke="#BF1E2D" stroke-width="4.183" stroke-miterlimit="10" points="
		957.415,698.579 966.561,698.579 1045.117,885.133 1123.941,698.579 1132.819,698.579 1047.807,898.652 1042.157,898.652 	"/>
	<rect x="1199.531" y="698.579" clip-path="url(#SVGID_2_)" fill="#BF1E2D" width="8.069" height="200.073"/>
	
		<rect x="1199.531" y="698.579" clip-path="url(#SVGID_2_)" fill="none" stroke="#BF1E2D" stroke-width="4.183" stroke-miterlimit="10" width="8.069" height="200.073"/>
	<polygon clip-path="url(#SVGID_2_)" fill="#BF1E2D" points="1293.419,698.579 1402.643,698.579 1402.643,705.879 1301.488,705.879 
		1301.488,794.289 1402.643,794.289 1402.643,801.589 1301.488,801.589 1301.488,891.352 1402.643,891.352 1402.643,898.652 
		1293.419,898.652 	"/>
	<polygon clip-path="url(#SVGID_2_)" fill="none" stroke="#BF1E2D" stroke-width="4.183" stroke-miterlimit="10" points="
		1293.419,698.579 1402.643,698.579 1402.643,705.879 1301.488,705.879 1301.488,794.289 1402.643,794.289 1402.643,801.589 
		1301.488,801.589 1301.488,891.352 1402.643,891.352 1402.643,898.652 1293.419,898.652 	"/>
	<polygon clip-path="url(#SVGID_2_)" fill="#BF1E2D" points="1467.206,698.579 1475.815,698.579 1529.62,887.566 1580.465,698.579 
		1586.115,698.579 1638.037,887.566 1691.305,698.579 1699.645,698.579 1642.61,898.652 1632.118,898.652 1583.426,719.938 
		1534.732,898.652 1523.972,898.652 	"/>
	<polygon clip-path="url(#SVGID_2_)" fill="none" stroke="#BF1E2D" stroke-width="4.183" stroke-miterlimit="10" points="
		1467.206,698.579 1475.815,698.579 1529.62,887.566 1580.465,698.579 1586.115,698.579 1638.037,887.566 1691.305,698.579 
		1699.645,698.579 1642.61,898.652 1632.118,898.652 1583.426,719.938 1534.732,898.652 1523.972,898.652 	"/>
	<path clip-path="url(#SVGID_2_)" fill="#BF1E2D" d="M1702.913,547.619H197.883H1702.913z"/>
	<path clip-path="url(#SVGID_2_)" fill="none" stroke="#BF1E2D" stroke-width="8.525" stroke-miterlimit="10" d="M1702.913,547.619
		H197.883H1702.913z"/>
</g>
</svg>
